<svg xmlns="http://www.w3.org/2000/svg" width="752pt" height="752pt" version="1.1" viewBox="0 0 752 752" stroke="currentColor" fill="currentColor">
 <g>
  <path d="m572.46 405.95-32.445-9.2812c-42.801-12.242-81.07-38.621-107.78-74.273-5.5781-7.4531-18.094-7.4531-23.672 0-26.707 35.648-64.98 62.027-107.78 74.273l-32.445 9.2812c-6.3516 1.8164-10.73 7.6367-10.73 14.25v148.18c0 8.1836 6.6289 14.816 14.801 14.816s14.801-6.6367 14.801-14.82v-118.54h266.39v118.54c-0.003906 8.1875 6.625 14.82 14.797 14.82s14.801-6.6367 14.801-14.82l-0.003906-148.18c0-6.6133-4.3789-12.434-10.73-14.25z"/>
  <path d="m464.8 336.84c9.0625 8.6562 19.039 16.289 29.598 23.016l0.003907-87.668c0-6.6133-4.3789-12.43-10.73-14.246l-32.445-9.2812c-42.801-12.242-81.07-38.617-107.78-74.262-5.5781-7.4531-18.094-7.4531-23.672 0-26.707 35.645-64.98 62.02-107.78 74.262l-32.449 9.2812c-6.3516 1.8164-10.73 7.6328-10.73 14.246v177.79c0 8.1836 6.6289 14.816 14.801 14.816s14.801-6.6328 14.801-14.816v-148.16h266.39z"/>
 </g>
</svg>
